<?xml version="1.0" encoding="utf-8"?>
<!-- Generator: Adobe Illustrator 27.9.4, SVG Export Plug-In . SVG Version: 9.03 Build 54784)  -->
<svg version="1.1" id="Layer_1" xmlns="http://www.w3.org/2000/svg" xmlns:xlink="http://www.w3.org/1999/xlink" x="0px" y="0px"
	 viewBox="0 0 280.1 45.8" style="enable-background:new 0 0 280.1 45.8;" xml:space="preserve">
<style type="text/css">
	.st0{fill:#FF8315;}
	.st1{fill:#3A3A3A;}
</style>
<g>
	<path class="st0" d="M1.4,32.3c0.5-0.8,1.5-1.2,2.3-0.7c2.2,1,4.6,1.7,6.9,1.7c2.5,0,4.1-0.8,4.1-2.6C14.7,26.1,0,29.1,0,18.9
		c0-5.5,5-8.5,10.8-8.5c2.5,0,5.2,0.4,8.3,1.6c1,0.4,1.4,1.5,0.9,2.5l-1,2c-0.4,0.8-1.4,1.2-2.3,0.8c-2.2-0.8-4.4-1.3-5.9-1.3
		c-2.2,0-3.7,0.9-3.7,2.5c0,4.5,14.6,1.3,14.6,11.6c0,5.6-4.7,8.7-11.1,8.7c-3.5,0-6.7-0.7-9.6-2.1c-0.9-0.4-1.3-1.6-0.8-2.5
		L1.4,32.3z"/>
	<path class="st0" d="M28.7,16.3H27c-0.7,0-1.3-0.6-1.3-1.3v-2.7c0-0.7,0.6-1.3,1.3-1.3h1.7c0.7,0,1.3-0.6,1.3-1.3V5.6
		c0-0.7,0.6-1.3,1.3-1.3h4.9c0.7,0,1.3,0.6,1.3,1.3v4.2c0,0.7,0.6,1.3,1.3,1.3h4.9c0.7,0,1.3,0.6,1.3,1.3V15c0,0.7-0.6,1.3-1.3,1.3
		h-4.9c-0.7,0-1.3,0.6-1.3,1.3v12.2c0,2,0.8,3,2.5,3c1,0,1.9-0.2,2.7-0.6c0.6-0.3,1.3,0,1.6,0.5l1.4,2.3c0.4,0.6,0.2,1.4-0.4,1.8
		c-2,1.2-4.4,2-6.9,2c-5.7,0-8.4-2.8-8.4-8.9l0-12.4C30,16.9,29.5,16.3,28.7,16.3z"/>
	<path class="st0" d="M52.1,11.1H58c0.4,0,0.8,0.4,0.8,0.8v17.4c0,2.4,0.9,4.1,3.5,4.1c2.2,0,4.1-1.1,5.7-2.9
		c0.1-0.1,0.2-0.3,0.2-0.5l0-18.1c0-0.4,0.4-0.8,0.8-0.8h5.9c0.4,0,0.8,0.4,0.8,0.8v25.6c0,0.4-0.4,0.8-0.8,0.8h-5.4
		c-0.4,0-0.7-0.3-0.8-0.7l-0.1-1c-0.1-0.6-0.8-0.9-1.3-0.5c0,0-0.1,0.1-0.1,0.1c-6.4,5.1-15.8,0.4-15.8-7.8V11.9
		C51.3,11.4,51.7,11.1,52.1,11.1z"/>
	<path class="st0" d="M81.8,24.4c0-9.2,4.3-13.9,10.6-13.9c2.2,0,4.2,0.7,5.9,2c0.8,0.6,1.9,0,1.9-0.9V1.2c0-0.6,0.5-1.2,1.2-1.2
		h5.1c0.6,0,1.2,0.5,1.2,1.2v36c0,0.6-0.5,1.2-1.2,1.2h-4.4c-0.6,0-1.1-0.4-1.2-1v0c-0.1-0.9-1.2-1.3-1.9-0.8
		c-1.8,1.4-4,2.4-6.8,2.4C86.2,38.9,81.8,33.9,81.8,24.4z M100.3,30.1V19.4c0-0.3-0.1-0.6-0.3-0.8c-1.5-1.6-3.3-2.5-5.3-2.5
		c-3.6,0-5.3,2.9-5.3,8.3c0,5.3,1.7,8.8,5.3,8.8c2.1,0,3.7-0.7,5.3-2.3C100.2,30.7,100.3,30.4,100.3,30.1z"/>
	<path class="st0" d="M117.6,0.3h2.8c1.3,0,2.4,1.1,2.4,2.4v1.7c0,1.3-1.1,2.4-2.4,2.4h-2.8c-1.3,0-2.4-1.1-2.4-2.4V2.6
		C115.3,1.3,116.3,0.3,117.6,0.3z M117.6,11.5h2.8c1.3,0,2.4,1.1,2.4,2.4V36c0,1.3-1.1,2.4-2.4,2.4h-2.8c-1.3,0-2.4-1.1-2.4-2.4
		V13.8C115.3,12.5,116.3,11.5,117.6,11.5z"/>
	<path class="st0" d="M142.8,10.5c7.8,0,13.6,5.5,13.6,14c0,9-5.5,14.5-13.6,14.5c-8.2,0-13.8-5.5-13.8-14.5
		C129,16,134.9,10.5,142.8,10.5z M142.8,33.3c3.9,0,6.1-3.5,6.1-8.9c0-5-2.4-8.4-6.1-8.4c-3.8,0-6.2,3.3-6.2,8.4
		C136.5,29.8,138.8,33.3,142.8,33.3z"/>
</g>
<g>
	<path class="st1" d="M162.6,38.5l0-1.3c-0.5-13.8,17.2-12.6,17.2-18c0-1.9-1.6-3.2-4.7-3.2c-3,0-5.9,1.1-8.5,2.9
		c-0.5,0.4-1.2,0.2-1.6-0.3l-2-3.1c-0.3-0.5-0.2-1.2,0.3-1.6c3.3-2.2,7.3-3.7,11.8-3.7c7.6,0,11.8,3.6,11.8,8.7
		c0,7.6-10,9-14.5,11.8c-1,0.6-0.5,2.1,0.6,2.1h12.4c0.6,0,1.1,0.5,1.1,1.1v3.5c0,0.6-0.5,1.1-1.1,1.1H162.6z"/>
	<path class="st1" d="M192.9,38.5l0-1.3c-0.5-13.8,17.2-12.6,17.2-18c0-1.9-1.6-3.2-4.7-3.2c-3,0-5.9,1.1-8.5,2.9
		c-0.5,0.4-1.2,0.2-1.6-0.3l-2-3.1c-0.3-0.5-0.2-1.2,0.3-1.6c3.3-2.2,7.3-3.7,11.8-3.7c7.6,0,11.8,3.6,11.8,8.7
		c0,7.6-10,9-14.6,11.8c-1,0.6-0.5,2.1,0.6,2.1h12.4c0.6,0,1.1,0.5,1.1,1.1v3.5c0,0.6-0.5,1.1-1.1,1.1H192.9z"/>
	<path class="st1" d="M238.3,3.5c2.7,0,5.5,0.7,8.2,1.9c0.6,0.3,0.8,1,0.5,1.6l-1.7,3c-0.3,0.5-0.9,0.7-1.4,0.5
		c-1.6-0.7-3.5-1.2-5.6-1.2c-4,0-6.9,2.5-7.9,7.2c-0.2,0.9,0.8,1.7,1.6,1.2c1.8-1,4.1-1.6,6.2-1.6c6.3,0,10.7,4,10.7,11.1
		c0,6.4-4.9,11.9-12.8,11.9c-9.4,0-13.4-7.6-13.4-16.9C222.7,8.9,230.3,3.5,238.3,3.5z M236.3,33.5c3.4,0,5.6-2.8,5.6-6.2
		c0-3.6-1.9-6-5.2-6c-2.4,0-4.6,1.1-6.2,2.6c-0.2,0.2-0.4,0.6-0.4,0.9C230.3,30.1,232.3,33.5,236.3,33.5z"/>
	<path class="st1" d="M254.2,38.7c0.3-0.5,0.9-0.8,1.5-0.5c2.4,1.2,5.1,1.9,7.7,1.9c4.6,0,7.7-2,7.7-5.3c0-3.3-2.8-4.5-6.7-4.5h-3.7
		c-0.6,0-1.1-0.5-1.1-1.1V26c0-0.6,0.5-1.1,1.1-1.1h3.5c3.7,0,5.8-1.3,5.8-4.6c0-2.4-2.1-4.3-5.9-4.3c-2.5,0-5,1-7.3,2.5
		c-0.5,0.3-1.2,0.2-1.5-0.3l-2-3c-0.4-0.5-0.2-1.3,0.3-1.6c3.2-2,6.6-3.4,11.1-3.4c7.5,0,12.5,3.8,12.5,9.4c0,2.9-1.2,5-3.2,6.4
		c-0.6,0.5-0.6,1.5,0.1,1.9c2.8,1.7,4.2,4,4.2,7.3c0,7-6.9,10.7-14.7,10.7c-3.7,0-7.3-0.9-10.5-2.4c-0.6-0.3-0.8-1-0.5-1.5
		L254.2,38.7z"/>
</g>
</svg>
